<mxfile host="app.diagrams.net" modified="2023-03-26T13:57:18.141Z" agent="Mozilla/5.0 (Macintosh; Intel Mac OS X 10_15_7) AppleWebKit/537.36 (KHTML, like Gecko) Chrome/111.0.0.0 Safari/537.36" version="21.1.1" etag="9HM99rZnN4tpAYk4nHL8" type="github">
  <diagram name="페이지-1" id="Bu9IgcUaLLn4rMcgiiWq">
    <mxGraphModel>
      <root>
        <mxCell id="0" />
        <mxCell id="1" parent="0" />
      </root>
    </mxGraphModel>
  </diagram>
</mxfile>
